<svg xmlns="http://www.w3.org/2000/svg" width="1440" height="2058"><path d="M653,1153L515,1233L739,1339Z" fill="#e9e9e9" stroke="#e9e9e9" stroke-width="1.51"/><path d="M515,1233L604,1477L739,1339Z" fill="#ebebeb" stroke="#ebebeb" stroke-width="1.51"/><path d="M739,1339L821,1187L653,1153Z" fill="#e7e7e7" stroke="#e7e7e7" stroke-width="1.51"/><path d="M653,1153L519,978L515,1233Z" fill="#e9e9e9" stroke="#e9e9e9" stroke-width="1.51"/><path d="M821,1187L752,1005L653,1153Z" fill="#e6e6e6" stroke="#e6e6e6" stroke-width="1.51"/><path d="M604,1477L777,1554L739,1339Z" fill="#e8e8e8" stroke="#e8e8e8" stroke-width="1.51"/><path d="M739,1339L936,1487L821,1187Z" fill="#ebebeb" stroke="#ebebeb" stroke-width="1.51"/><path d="M752,1005L519,978L653,1153Z" fill="#e6e6e6" stroke="#e6e6e6" stroke-width="1.51"/><path d="M323,1412L491,1566L604,1477Z" fill="#ededed" stroke="#ededed" stroke-width="1.51"/><path d="M604,1477L754,1694L777,1554Z" fill="#e6e6e6" stroke="#e6e6e6" stroke-width="1.51"/><path d="M323,1412L604,1477L515,1233Z" fill="#efefef" stroke="#efefef" stroke-width="1.51"/><path d="M285,1247L323,1412L515,1233Z" fill="#ebebeb" stroke="#ebebeb" stroke-width="1.51"/><path d="M267,1091L285,1247L515,1233Z" fill="#e9e9e9" stroke="#e9e9e9" stroke-width="1.51"/><path d="M777,1554L936,1487L739,1339Z" fill="#eaeaea" stroke="#eaeaea" stroke-width="1.51"/><path d="M821,1187L854,950L752,1005Z" fill="#e6e6e6" stroke="#e6e6e6" stroke-width="1.51"/><path d="M752,1005L728,827L519,978Z" fill="#e6e6e6" stroke="#e6e6e6" stroke-width="1.51"/><path d="M1053,1265L854,950L821,1187Z" fill="#eaeaea" stroke="#eaeaea" stroke-width="1.51"/><path d="M519,978L267,1091L515,1233Z" fill="#e9e9e9" stroke="#e9e9e9" stroke-width="1.51"/><path d="M936,1487L1053,1265L821,1187Z" fill="#ededed" stroke="#ededed" stroke-width="1.51"/><path d="M936,1487L1023,1484L1053,1265Z" fill="#ededed" stroke="#ededed" stroke-width="1.51"/><path d="M777,1554L930,1576L936,1487Z" fill="#eaeaea" stroke="#eaeaea" stroke-width="1.51"/><path d="M754,1694L930,1576L777,1554Z" fill="#e8e8e8" stroke="#e8e8e8" stroke-width="1.51"/><path d="M854,950L728,827L752,1005Z" fill="#e7e7e7" stroke="#e7e7e7" stroke-width="1.51"/><path d="M1053,1265L878,930L854,950Z" fill="#e9e9e9" stroke="#e9e9e9" stroke-width="1.51"/><path d="M323,1412L264,1502L491,1566Z" fill="#eaeaea" stroke="#eaeaea" stroke-width="1.51"/><path d="M202,1393L264,1502L323,1412Z" fill="#e9e9e9" stroke="#e9e9e9" stroke-width="1.51"/><path d="M202,1393L323,1412L285,1247Z" fill="#e9e9e9" stroke="#e9e9e9" stroke-width="1.51"/><path d="M491,1566L754,1694L604,1477Z" fill="#e8e8e8" stroke="#e8e8e8" stroke-width="1.51"/><path d="M598,1773L754,1694L491,1566Z" fill="#e7e7e7" stroke="#e7e7e7" stroke-width="1.51"/><path d="M930,1576L1023,1484L936,1487Z" fill="#ececec" stroke="#ececec" stroke-width="1.51"/><path d="M103,1257L202,1393L285,1247Z" fill="#e4e4e4" stroke="#e4e4e4" stroke-width="1.51"/><path d="M878,930L728,827L854,950Z" fill="#e8e8e8" stroke="#e8e8e8" stroke-width="1.51"/><path d="M519,978L363,895L267,1091Z" fill="#e8e8e8" stroke="#e8e8e8" stroke-width="1.51"/><path d="M498,793L363,895L519,978Z" fill="#ebebeb" stroke="#ebebeb" stroke-width="1.51"/><path d="M267,1091L176,1084L285,1247Z" fill="#e6e6e6" stroke="#e6e6e6" stroke-width="1.51"/><path d="M243,860L176,1084L267,1091Z" fill="#e3e3e3" stroke="#e3e3e3" stroke-width="1.51"/><path d="M330,1793L598,1773L491,1566Z" fill="#e9e9e9" stroke="#e9e9e9" stroke-width="1.51"/><path d="M728,827L498,793L519,978Z" fill="#e9e9e9" stroke="#e9e9e9" stroke-width="1.51"/><path d="M176,1084L103,1257L285,1247Z" fill="#e2e2e2" stroke="#e2e2e2" stroke-width="1.51"/><path d="M202,1393L130,1527L264,1502Z" fill="#e4e4e4" stroke="#e4e4e4" stroke-width="1.51"/><path d="M264,1502L330,1793L491,1566Z" fill="#e8e8e8" stroke="#e8e8e8" stroke-width="1.51"/><path d="M36,1401L130,1527L202,1393Z" fill="#dedede" stroke="#dedede" stroke-width="1.51"/><path d="M930,1576L1042,1670L1023,1484Z" fill="#eaeaea" stroke="#eaeaea" stroke-width="1.51"/><path d="M1023,1484L1198,1398L1053,1265Z" fill="#ececec" stroke="#ececec" stroke-width="1.51"/><path d="M923,1836L1042,1670L930,1576Z" fill="#eaeaea" stroke="#eaeaea" stroke-width="1.51"/><path d="M923,1836L930,1576L754,1694Z" fill="#e7e7e7" stroke="#e7e7e7" stroke-width="1.51"/><path d="M176,1084L0,1116L103,1257Z" fill="#d9d9d9" stroke="#d9d9d9" stroke-width="1.51"/><path d="M363,895L243,860L267,1091Z" fill="#e6e6e6" stroke="#e6e6e6" stroke-width="1.51"/><path d="M298,667L243,860L363,895Z" fill="#e9e9e9" stroke="#e9e9e9" stroke-width="1.51"/><path d="M1255,1622L1198,1398L1023,1484Z" fill="#e8e8e8" stroke="#e8e8e8" stroke-width="1.51"/><path d="M1161,969L1042,863L878,930Z" fill="#e9e9e9" stroke="#e9e9e9" stroke-width="1.51"/><path d="M728,827L732,704L498,793Z" fill="#e9e9e9" stroke="#e9e9e9" stroke-width="1.51"/><path d="M498,793L298,667L363,895Z" fill="#ebebeb" stroke="#ebebeb" stroke-width="1.51"/><path d="M965,723L732,704L728,827Z" fill="#eaeaea" stroke="#eaeaea" stroke-width="1.51"/><path d="M965,723L728,827L878,930Z" fill="#eaeaea" stroke="#eaeaea" stroke-width="1.51"/><path d="M1161,969L878,930L1053,1265Z" fill="#e8e8e8" stroke="#e8e8e8" stroke-width="1.51"/><path d="M121,1783L330,1793L264,1502Z" fill="#e4e4e4" stroke="#e4e4e4" stroke-width="1.51"/><path d="M794,1931L923,1836L754,1694Z" fill="#e0e0e0" stroke="#e0e0e0" stroke-width="1.51"/><path d="M415,1871L544,1875L598,1773Z" fill="#e1e1e1" stroke="#e1e1e1" stroke-width="1.51"/><path d="M103,1257L36,1401L202,1393Z" fill="#dedede" stroke="#dedede" stroke-width="1.51"/><path d="M-54,1256L36,1401L103,1257Z" fill="#d6d6d6" stroke="#d6d6d6" stroke-width="1.51"/><path d="M1255,1116L1161,969L1053,1265Z" fill="#e6e6e6" stroke="#e6e6e6" stroke-width="1.51"/><path d="M794,1931L754,1694L598,1773Z" fill="#dfdfdf" stroke="#dfdfdf" stroke-width="1.51"/><path d="M330,1793L415,1871L598,1773Z" fill="#e3e3e3" stroke="#e3e3e3" stroke-width="1.51"/><path d="M1198,1398L1255,1116L1053,1265Z" fill="#e8e8e8" stroke="#e8e8e8" stroke-width="1.51"/><path d="M1044,680L965,723L1042,863Z" fill="#ececec" stroke="#ececec" stroke-width="1.51"/><path d="M1042,863L965,723L878,930Z" fill="#ececec" stroke="#ececec" stroke-width="1.51"/><path d="M-9,891L0,1116L176,1084Z" fill="#d4d4d4" stroke="#d4d4d4" stroke-width="1.51"/><path d="M1042,1670L1255,1622L1023,1484Z" fill="#e8e8e8" stroke="#e8e8e8" stroke-width="1.51"/><path d="M923,1836L1030,1793L1042,1670Z" fill="#e5e5e5" stroke="#e5e5e5" stroke-width="1.51"/><path d="M923,1836L1012,1881L1030,1793Z" fill="#e1e1e1" stroke="#e1e1e1" stroke-width="1.51"/><path d="M544,1875L794,1931L598,1773Z" fill="#dddddd" stroke="#dddddd" stroke-width="1.51"/><path d="M833,1948L794,1931L851,2067Z" fill="#d6d6d6" stroke="#d6d6d6" stroke-width="1.51"/><path d="M552,523L468,620L732,704Z" fill="#ebebeb" stroke="#ebebeb" stroke-width="1.51"/><path d="M732,704L468,620L498,793Z" fill="#ececec" stroke="#ececec" stroke-width="1.51"/><path d="M243,860L-9,891L176,1084Z" fill="#dcdcdc" stroke="#dcdcdc" stroke-width="1.51"/><path d="M0,1116L-54,1256L103,1257Z" fill="#d4d4d4" stroke="#d4d4d4" stroke-width="1.51"/><path d="M468,620L298,667L498,793Z" fill="#ededed" stroke="#ededed" stroke-width="1.51"/><path d="M1161,969L1207,874L1042,863Z" fill="#e7e7e7" stroke="#e7e7e7" stroke-width="1.51"/><path d="M1427,967L1207,874L1161,969Z" fill="#e0e0e0" stroke="#e0e0e0" stroke-width="1.51"/><path d="M794,1931L833,1948L923,1836Z" fill="#dbdbdb" stroke="#dbdbdb" stroke-width="1.51"/><path d="M851,2067L794,1931L678,2199Z" fill="#d0d0d0" stroke="#d0d0d0" stroke-width="1.51"/><path d="M1030,1793L1255,1622L1042,1670Z" fill="#e6e6e6" stroke="#e6e6e6" stroke-width="1.51"/><path d="M1198,1398L1363,1221L1255,1116Z" fill="#e1e1e1" stroke="#e1e1e1" stroke-width="1.51"/><path d="M1351,1688L1255,1622L1030,1793Z" fill="#e3e3e3" stroke="#e3e3e3" stroke-width="1.51"/><path d="M833,1948L1012,1881L923,1836Z" fill="#dedede" stroke="#dedede" stroke-width="1.51"/><path d="M130,1527L121,1783L264,1502Z" fill="#e0e0e0" stroke="#e0e0e0" stroke-width="1.51"/><path d="M330,1793L183,2066L415,1871Z" fill="#dadada" stroke="#dadada" stroke-width="1.51"/><path d="M57,1803L121,1783L-92,1609Z" fill="#d1d1d1" stroke="#d1d1d1" stroke-width="1.51"/><path d="M121,1783L130,1527L-92,1609Z" fill="#d5d5d5" stroke="#d5d5d5" stroke-width="1.51"/><path d="M965,723L750,524L732,704Z" fill="#ebebeb" stroke="#ebebeb" stroke-width="1.51"/><path d="M1207,874L1044,680L1042,863Z" fill="#eaeaea" stroke="#eaeaea" stroke-width="1.51"/><path d="M1255,1116L1427,967L1161,969Z" fill="#dddddd" stroke="#dddddd" stroke-width="1.51"/><path d="M1472,1443L1363,1221L1198,1398Z" fill="#dcdcdc" stroke="#dcdcdc" stroke-width="1.51"/><path d="M169,627L-9,891L243,860Z" fill="#dfdfdf" stroke="#dfdfdf" stroke-width="1.51"/><path d="M0,1116L-167,1194L-54,1256Z" fill="#d2d2d2" stroke="#d2d2d2" stroke-width="1.51"/><path d="M750,524L552,523L732,704Z" fill="#e9e9e9" stroke="#e9e9e9" stroke-width="1.51"/><path d="M304,415L173,552L298,667Z" fill="#e7e7e7" stroke="#e7e7e7" stroke-width="1.51"/><path d="M955,448L750,524L965,723Z" fill="#ebebeb" stroke="#ebebeb" stroke-width="1.51"/><path d="M121,1783L183,2066L330,1793Z" fill="#d7d7d7" stroke="#d7d7d7" stroke-width="1.51"/><path d="M-92,1609L130,1527L36,1401Z" fill="#d4d4d4" stroke="#d4d4d4" stroke-width="1.51"/><path d="M298,667L169,627L243,860Z" fill="#e8e8e8" stroke="#e8e8e8" stroke-width="1.51"/><path d="M173,552L169,627L298,667Z" fill="#e6e6e6" stroke="#e6e6e6" stroke-width="1.51"/><path d="M-265,1422L-92,1609L36,1401Z" fill="#d3d3d3" stroke="#d3d3d3" stroke-width="1.51"/><path d="M-54,1256L-265,1422L36,1401Z" fill="#d5d5d5" stroke="#d5d5d5" stroke-width="1.51"/><path d="M-172,941L-167,1194L0,1116Z" fill="#d0d0d0" stroke="#d0d0d0" stroke-width="1.51"/><path d="M833,1948L851,2067L1012,1881Z" fill="#d9d9d9" stroke="#d9d9d9" stroke-width="1.51"/><path d="M1351,1899L1351,1688L1030,1793Z" fill="#dbdbdb" stroke="#dbdbdb" stroke-width="1.51"/><path d="M610,2192L794,1931L544,1875Z" fill="#d4d4d4" stroke="#d4d4d4" stroke-width="1.51"/><path d="M610,2192L544,1875L373,2162Z" fill="#d4d4d4" stroke="#d4d4d4" stroke-width="1.51"/><path d="M1255,1622L1472,1443L1198,1398Z" fill="#dedede" stroke="#dedede" stroke-width="1.51"/><path d="M1351,1899L1030,1793L1012,1881Z" fill="#dddddd" stroke="#dddddd" stroke-width="1.51"/><path d="M1485,1144L1427,967L1255,1116Z" fill="#d4d4d4" stroke="#d4d4d4" stroke-width="1.51"/><path d="M1207,874L1249,664L1044,680Z" fill="#e9e9e9" stroke="#e9e9e9" stroke-width="1.51"/><path d="M1485,1144L1255,1116L1363,1221Z" fill="#d7d7d7" stroke="#d7d7d7" stroke-width="1.51"/><path d="M1351,1688L1472,1443L1255,1622Z" fill="#d8d8d8" stroke="#d8d8d8" stroke-width="1.51"/><path d="M-129,840L-172,941L-9,891Z" fill="#d1d1d1" stroke="#d1d1d1" stroke-width="1.51"/><path d="M304,415L298,667L468,620Z" fill="#eaeaea" stroke="#eaeaea" stroke-width="1.51"/><path d="M1472,1443L1485,1144L1363,1221Z" fill="#d3d3d3" stroke="#d3d3d3" stroke-width="1.51"/><path d="M1416,890L1249,664L1207,874Z" fill="#dfdfdf" stroke="#dfdfdf" stroke-width="1.51"/><path d="M1044,680L955,448L965,723Z" fill="#ededed" stroke="#ededed" stroke-width="1.51"/><path d="M-9,891L-172,941L0,1116Z" fill="#d0d0d0" stroke="#d0d0d0" stroke-width="1.51"/><path d="M-129,840L-9,891L33,629Z" fill="#d3d3d3" stroke="#d3d3d3" stroke-width="1.51"/><path d="M1677,857L1416,890L1427,967Z" fill="#d1d1d1" stroke="#d1d1d1" stroke-width="1.51"/><path d="M1427,967L1416,890L1207,874Z" fill="#d9d9d9" stroke="#d9d9d9" stroke-width="1.51"/><path d="M33,629L-9,891L169,627Z" fill="#dadada" stroke="#dadada" stroke-width="1.51"/><path d="M173,552L33,629L169,627Z" fill="#dedede" stroke="#dedede" stroke-width="1.51"/><path d="M1070,485L955,448L1044,680Z" fill="#ebebeb" stroke="#ebebeb" stroke-width="1.51"/><path d="M750,524L796,228L552,523Z" fill="#e6e6e6" stroke="#e6e6e6" stroke-width="1.51"/><path d="M552,523L304,415L468,620Z" fill="#ebebeb" stroke="#ebebeb" stroke-width="1.51"/><path d="M1249,664L1070,485L1044,680Z" fill="#eaeaea" stroke="#eaeaea" stroke-width="1.51"/><path d="M-167,1194L-265,1422L-54,1256Z" fill="#d3d3d3" stroke="#d3d3d3" stroke-width="1.51"/><path d="M26,1983L121,1783L57,1803Z" fill="#cccccc" stroke="#cccccc" stroke-width="1.51"/><path d="M-172,941L-265,1422L-167,1194Z" fill="#d2d2d2" stroke="#d2d2d2" stroke-width="1.51"/><path d="M91,2041L183,2066L121,1783Z" fill="#cbcbcb" stroke="#cbcbcb" stroke-width="1.51"/><path d="M26,1983L57,1803L-158,1943Z" fill="#c4c4c4" stroke="#c4c4c4" stroke-width="1.51"/><path d="M373,2162L544,1875L415,1871Z" fill="#d9d9d9" stroke="#d9d9d9" stroke-width="1.51"/><path d="M64,344L-107,507L33,629Z" fill="#d2d2d2" stroke="#d2d2d2" stroke-width="1.51"/><path d="M268,292L304,415L499,206Z" fill="#e4e4e4" stroke="#e4e4e4" stroke-width="1.51"/><path d="M183,2066L373,2162L415,1871Z" fill="#d3d3d3" stroke="#d3d3d3" stroke-width="1.51"/><path d="M610,2192L678,2199L794,1931Z" fill="#d0d0d0" stroke="#d0d0d0" stroke-width="1.51"/><path d="M1543,1750L1513,1611L1351,1688Z" fill="#d0d0d0" stroke="#d0d0d0" stroke-width="1.51"/><path d="M-158,1943L57,1803L-92,1609Z" fill="#cbcbcb" stroke="#cbcbcb" stroke-width="1.51"/><path d="M125,2389L341,2382L373,2162Z" fill="#d0d0d0" stroke="#d0d0d0" stroke-width="1.51"/><path d="M26,1983L91,2041L121,1783Z" fill="#c8c8c8" stroke="#c8c8c8" stroke-width="1.51"/><path d="M1472,1443L1623,1133L1485,1144Z" fill="#d3d3d3" stroke="#d3d3d3" stroke-width="1.51"/><path d="M1351,1688L1513,1611L1472,1443Z" fill="#d1d1d1" stroke="#d1d1d1" stroke-width="1.51"/><path d="M1351,1899L1012,1881L1155,2088Z" fill="#d6d6d6" stroke="#d6d6d6" stroke-width="1.51"/><path d="M1155,2088L1012,1881L851,2067Z" fill="#d6d6d6" stroke="#d6d6d6" stroke-width="1.51"/><path d="M939,2278L1155,2088L851,2067Z" fill="#d4d4d4" stroke="#d4d4d4" stroke-width="1.51"/><path d="M-265,1422L-293,1556L-92,1609Z" fill="#d2d2d2" stroke="#d2d2d2" stroke-width="1.51"/><path d="M-250,-129L-293,1556L-265,1422Z" fill="#d1d1d1" stroke="#d1d1d1" stroke-width="1.51"/><path d="M-172,941L-184,425L-265,1422Z" fill="#d1d1d1" stroke="#d1d1d1" stroke-width="1.51"/><path d="M-129,840L-142,666L-172,941Z" fill="#d3d3d3" stroke="#d3d3d3" stroke-width="1.51"/><path d="M33,629L-142,666L-129,840Z" fill="#d4d4d4" stroke="#d4d4d4" stroke-width="1.51"/><path d="M-107,507L-142,666L33,629Z" fill="#d3d3d3" stroke="#d3d3d3" stroke-width="1.51"/><path d="M1485,1144L1622,1050L1427,967Z" fill="#d0d0d0" stroke="#d0d0d0" stroke-width="1.51"/><path d="M1416,890L1415,593L1249,664Z" fill="#dbdbdb" stroke="#dbdbdb" stroke-width="1.51"/><path d="M1671,1488L1623,1133L1472,1443Z" fill="#d4d4d4" stroke="#d4d4d4" stroke-width="1.51"/><path d="M1351,1899L1429,1886L1351,1688Z" fill="#cecece" stroke="#cecece" stroke-width="1.51"/><path d="M1526,2112L1429,1886L1351,1899Z" fill="#c1c1c1" stroke="#c1c1c1" stroke-width="1.51"/><path d="M955,448L836,284L750,524Z" fill="#e8e8e8" stroke="#e8e8e8" stroke-width="1.51"/><path d="M1076,342L836,284L955,448Z" fill="#e9e9e9" stroke="#e9e9e9" stroke-width="1.51"/><path d="M1623,1133L1622,1050L1485,1144Z" fill="#d1d1d1" stroke="#d1d1d1" stroke-width="1.51"/><path d="M1429,1886L1543,1750L1351,1688Z" fill="#cccccc" stroke="#cccccc" stroke-width="1.51"/><path d="M1513,1611L1648,1518L1472,1443Z" fill="#d2d2d2" stroke="#d2d2d2" stroke-width="1.51"/><path d="M1070,485L1076,342L955,448Z" fill="#e9e9e9" stroke="#e9e9e9" stroke-width="1.51"/><path d="M1291,373L1076,342L1070,485Z" fill="#e6e6e6" stroke="#e6e6e6" stroke-width="1.51"/><path d="M1301,390L1070,485L1249,664Z" fill="#e6e6e6" stroke="#e6e6e6" stroke-width="1.51"/><path d="M26,1983L7,2109L91,2041Z" fill="#bfbfbf" stroke="#bfbfbf" stroke-width="1.51"/><path d="M91,2041L7,2109L183,2066Z" fill="#c3c3c3" stroke="#c3c3c3" stroke-width="1.51"/><path d="M-279,1818L-158,1943L-92,1609Z" fill="#cbcbcb" stroke="#cbcbcb" stroke-width="1.51"/><path d="M304,415L237,315L173,552Z" fill="#e5e5e5" stroke="#e5e5e5" stroke-width="1.51"/><path d="M268,292L237,315L304,415Z" fill="#e4e4e4" stroke="#e4e4e4" stroke-width="1.51"/><path d="M1677,857L1415,593L1416,890Z" fill="#d3d3d3" stroke="#d3d3d3" stroke-width="1.51"/><path d="M-158,1943L7,2109L26,1983Z" fill="#bdbdbd" stroke="#bdbdbd" stroke-width="1.51"/><path d="M1644,1744L1648,1518L1513,1611Z" fill="#d1d1d1" stroke="#d1d1d1" stroke-width="1.51"/><path d="M1623,1133L1677,857L1622,1050Z" fill="#d0d0d0" stroke="#d0d0d0" stroke-width="1.51"/><path d="M1155,2088L1290,2199L1351,1899Z" fill="#cacaca" stroke="#cacaca" stroke-width="1.51"/><path d="M742,2320L939,2278L851,2067Z" fill="#d2d2d2" stroke="#d2d2d2" stroke-width="1.51"/><path d="M742,2320L851,2067L678,2199Z" fill="#d0d0d0" stroke="#d0d0d0" stroke-width="1.51"/><path d="M742,2320L678,2199L610,2192Z" fill="#d0d0d0" stroke="#d0d0d0" stroke-width="1.51"/><path d="M742,2320L610,2192L504,2351Z" fill="#d2d2d2" stroke="#d2d2d2" stroke-width="1.51"/><path d="M499,206L304,415L552,523Z" fill="#e9e9e9" stroke="#e9e9e9" stroke-width="1.51"/><path d="M504,2351L610,2192L373,2162Z" fill="#d4d4d4" stroke="#d4d4d4" stroke-width="1.51"/><path d="M-293,1556L-279,1818L-92,1609Z" fill="#d0d0d0" stroke="#d0d0d0" stroke-width="1.51"/><path d="M836,284L796,228L750,524Z" fill="#e5e5e5" stroke="#e5e5e5" stroke-width="1.51"/><path d="M863,100L796,228L836,284Z" fill="#dedede" stroke="#dedede" stroke-width="1.51"/><path d="M1648,1518L1671,1488L1472,1443Z" fill="#d3d3d3" stroke="#d3d3d3" stroke-width="1.51"/><path d="M1644,1744L1671,1488L1648,1518Z" fill="#d1d1d1" stroke="#d1d1d1" stroke-width="1.51"/><path d="M64,344L173,552L237,315Z" fill="#dedede" stroke="#dedede" stroke-width="1.51"/><path d="M64,344L33,629L173,552Z" fill="#d9d9d9" stroke="#d9d9d9" stroke-width="1.51"/><path d="M796,228L499,206L552,523Z" fill="#e5e5e5" stroke="#e5e5e5" stroke-width="1.51"/><path d="M341,2382L504,2351L373,2162Z" fill="#d3d3d3" stroke="#d3d3d3" stroke-width="1.51"/><path d="M144,180L64,344L237,315Z" fill="#d8d8d8" stroke="#d8d8d8" stroke-width="1.51"/><path d="M144,180L237,315L268,292Z" fill="#dddddd" stroke="#dddddd" stroke-width="1.51"/><path d="M1415,593L1301,390L1249,664Z" fill="#dddddd" stroke="#dddddd" stroke-width="1.51"/><path d="M1623,573L1441,540L1415,593Z" fill="#d3d3d3" stroke="#d3d3d3" stroke-width="1.51"/><path d="M1441,540L1301,390L1415,593Z" fill="#d6d6d6" stroke="#d6d6d6" stroke-width="1.51"/><path d="M1070,98L863,100L836,284Z" fill="#dddddd" stroke="#dddddd" stroke-width="1.51"/><path d="M1543,1750L1644,1744L1513,1611Z" fill="#cfcfcf" stroke="#cfcfcf" stroke-width="1.51"/><path d="M1642,1912L1644,1744L1543,1750Z" fill="#cacaca" stroke="#cacaca" stroke-width="1.51"/><path d="M1642,1912L1543,1750L1429,1886Z" fill="#c7c7c7" stroke="#c7c7c7" stroke-width="1.51"/><path d="M1451,273L1291,373L1301,390Z" fill="#d7d7d7" stroke="#d7d7d7" stroke-width="1.51"/><path d="M1301,390L1291,373L1070,485Z" fill="#e3e3e3" stroke="#e3e3e3" stroke-width="1.51"/><path d="M1671,1488L1677,857L1623,1133Z" fill="#d1d1d1" stroke="#d1d1d1" stroke-width="1.51"/><path d="M1622,1050L1677,857L1427,967Z" fill="#d0d0d0" stroke="#d0d0d0" stroke-width="1.51"/><path d="M356,102L144,180L268,292Z" fill="#dbdbdb" stroke="#dbdbdb" stroke-width="1.51"/><path d="M796,228L580,146L499,206Z" fill="#dddddd" stroke="#dddddd" stroke-width="1.51"/><path d="M647,64L580,146L796,228Z" fill="#d9d9d9" stroke="#d9d9d9" stroke-width="1.51"/><path d="M1108,2314L1290,2199L1155,2088Z" fill="#d0d0d0" stroke="#d0d0d0" stroke-width="1.51"/><path d="M939,2278L1108,2314L1155,2088Z" fill="#d2d2d2" stroke="#d2d2d2" stroke-width="1.51"/><path d="M1146,2426L1108,2314L929,2526Z" fill="#d2d2d2" stroke="#d2d2d2" stroke-width="1.51"/><path d="M1108,2314L939,2278L929,2526Z" fill="#d4d4d4" stroke="#d4d4d4" stroke-width="1.51"/><path d="M125,2389L373,2162L183,2066Z" fill="#cecece" stroke="#cecece" stroke-width="1.51"/><path d="M504,2351L606,2497L742,2320Z" fill="#d2d2d2" stroke="#d2d2d2" stroke-width="1.51"/><path d="M-107,507L-184,425L-142,666Z" fill="#d2d2d2" stroke="#d2d2d2" stroke-width="1.51"/><path d="M-142,666L-184,425L-172,941Z" fill="#d5d5d5" stroke="#d5d5d5" stroke-width="1.51"/><path d="M64,344L-184,425L-107,507Z" fill="#d1d1d1" stroke="#d1d1d1" stroke-width="1.51"/><path d="M-155,242L-184,425L64,344Z" fill="#cfcfcf" stroke="#cfcfcf" stroke-width="1.51"/><path d="M1644,1744L1679,2181L1671,1488Z" fill="#cacaca" stroke="#cacaca" stroke-width="1.51"/><path d="M1526,2112L1642,1912L1429,1886Z" fill="#c0c0c0" stroke="#c0c0c0" stroke-width="1.51"/><path d="M-279,1818L-147,2181L-158,1943Z" fill="#bfbfbf" stroke="#bfbfbf" stroke-width="1.51"/><path d="M-158,1943L-147,2181L7,2109Z" fill="#bbbbbb" stroke="#bbbbbb" stroke-width="1.51"/><path d="M7,2109L125,2389L183,2066Z" fill="#c4c4c4" stroke="#c4c4c4" stroke-width="1.51"/><path d="M1070,98L836,284L1076,342Z" fill="#e2e2e2" stroke="#e2e2e2" stroke-width="1.51"/><path d="M356,102L268,292L499,206Z" fill="#dedede" stroke="#dedede" stroke-width="1.51"/><path d="M356,102L499,206L580,146Z" fill="#dedede" stroke="#dedede" stroke-width="1.51"/><path d="M647,64L356,102L580,146Z" fill="#dadada" stroke="#dadada" stroke-width="1.51"/><path d="M863,100L647,64L796,228Z" fill="#d8d8d8" stroke="#d8d8d8" stroke-width="1.51"/><path d="M1677,857L1623,573L1415,593Z" fill="#d5d5d5" stroke="#d5d5d5" stroke-width="1.51"/><path d="M1441,540L1451,273L1301,390Z" fill="#d4d4d4" stroke="#d4d4d4" stroke-width="1.51"/><path d="M1331,106L1070,98L1076,342Z" fill="#dbdbdb" stroke="#dbdbdb" stroke-width="1.51"/><path d="M1290,2199L1526,2112L1351,1899Z" fill="#bfbfbf" stroke="#bfbfbf" stroke-width="1.51"/><path d="M1108,2314L1263,2314L1290,2199Z" fill="#cdcdcd" stroke="#cdcdcd" stroke-width="1.51"/><path d="M1146,2426L1263,2314L1108,2314Z" fill="#d0d0d0" stroke="#d0d0d0" stroke-width="1.51"/><path d="M341,2382L606,2497L504,2351Z" fill="#d5d5d5" stroke="#d5d5d5" stroke-width="1.51"/><path d="M295,2544L606,2497L341,2382Z" fill="#d3d3d3" stroke="#d3d3d3" stroke-width="1.51"/><path d="M-21,2351L125,2389L7,2109Z" fill="#bebebe" stroke="#bebebe" stroke-width="1.51"/><path d="M1386,2374L1526,2112L1290,2199Z" fill="#bebebe" stroke="#bebebe" stroke-width="1.51"/><path d="M863,100L853,-21L647,64Z" fill="#d4d4d4" stroke="#d4d4d4" stroke-width="1.51"/><path d="M1331,106L1076,342L1291,373Z" fill="#dddddd" stroke="#dddddd" stroke-width="1.51"/><path d="M-147,2181L-21,2351L7,2109Z" fill="#bbbbbb" stroke="#bbbbbb" stroke-width="1.51"/><path d="M1263,2314L1386,2374L1290,2199Z" fill="#c6c6c6" stroke="#c6c6c6" stroke-width="1.51"/><path d="M929,2526L939,2278L742,2320Z" fill="#d3d3d3" stroke="#d3d3d3" stroke-width="1.51"/><path d="M718,2573L929,2526L742,2320Z" fill="#d1d1d1" stroke="#d1d1d1" stroke-width="1.51"/><path d="M1572,375L1451,273L1441,540Z" fill="#d0d0d0" stroke="#d0d0d0" stroke-width="1.51"/><path d="M11,2589L226,2506L125,2389Z" fill="#c5c5c5" stroke="#c5c5c5" stroke-width="1.51"/><path d="M125,2389L226,2506L341,2382Z" fill="#cecece" stroke="#cecece" stroke-width="1.51"/><path d="M606,2497L718,2573L742,2320Z" fill="#d0d0d0" stroke="#d0d0d0" stroke-width="1.51"/><path d="M13,58L64,344L144,180Z" fill="#cccccc" stroke="#cccccc" stroke-width="1.51"/><path d="M13,58L-155,242L64,344Z" fill="#c7c7c7" stroke="#c7c7c7" stroke-width="1.51"/><path d="M295,2544L718,2573L606,2497Z" fill="#d3d3d3" stroke="#d3d3d3" stroke-width="1.51"/><path d="M1623,573L1572,375L1441,540Z" fill="#d2d2d2" stroke="#d2d2d2" stroke-width="1.51"/><path d="M226,2506L295,2544L341,2382Z" fill="#d0d0d0" stroke="#d0d0d0" stroke-width="1.51"/><path d="M1070,98L853,-21L863,100Z" fill="#d8d8d8" stroke="#d8d8d8" stroke-width="1.51"/><path d="M489,-171L343,-148L356,102Z" fill="#d3d3d3" stroke="#d3d3d3" stroke-width="1.51"/><path d="M1139,-33L853,-21L1070,98Z" fill="#d4d4d4" stroke="#d4d4d4" stroke-width="1.51"/><path d="M1376,2517L1263,2314L1146,2426Z" fill="#cacaca" stroke="#cacaca" stroke-width="1.51"/><path d="M1376,2517L1386,2374L1263,2314Z" fill="#c3c3c3" stroke="#c3c3c3" stroke-width="1.51"/><path d="M1526,2112L1679,2181L1642,1912Z" fill="#bbbbbb" stroke="#bbbbbb" stroke-width="1.51"/><path d="M1671,1488L1695,467L1677,857Z" fill="#d1d1d1" stroke="#d1d1d1" stroke-width="1.51"/><path d="M1677,857L1695,467L1623,573Z" fill="#d4d4d4" stroke="#d4d4d4" stroke-width="1.51"/><path d="M1623,573L1695,467L1572,375Z" fill="#d1d1d1" stroke="#d1d1d1" stroke-width="1.51"/><path d="M1503,186L1331,106L1451,273Z" fill="#c7c7c7" stroke="#c7c7c7" stroke-width="1.51"/><path d="M1503,186L1451,273L1572,375Z" fill="#cbcbcb" stroke="#cbcbcb" stroke-width="1.51"/><path d="M1451,273L1331,106L1291,373Z" fill="#d1d1d1" stroke="#d1d1d1" stroke-width="1.51"/><path d="M196,-122L13,58L144,180Z" fill="#c7c7c7" stroke="#c7c7c7" stroke-width="1.51"/><path d="M196,-122L144,180L356,102Z" fill="#d2d2d2" stroke="#d2d2d2" stroke-width="1.51"/><path d="M-147,2181L-194,2365L-21,2351Z" fill="#bbbbbb" stroke="#bbbbbb" stroke-width="1.51"/><path d="M-21,2351L11,2589L125,2389Z" fill="#bebebe" stroke="#bebebe" stroke-width="1.51"/><path d="M226,2506L11,2589L295,2544Z" fill="#cacaca" stroke="#cacaca" stroke-width="1.51"/><path d="M-279,1818L-194,2365L-147,2181Z" fill="#bbbbbb" stroke="#bbbbbb" stroke-width="1.51"/><path d="M853,-21L719,-93L647,64Z" fill="#d0d0d0" stroke="#d0d0d0" stroke-width="1.51"/><path d="M761,-218L719,-93L824,-218Z" fill="#d0d0d0" stroke="#d0d0d0" stroke-width="1.51"/><path d="M1677,2281L1679,2181L1526,2112Z" fill="#bbbbbb" stroke="#bbbbbb" stroke-width="1.51"/><path d="M1642,1912L1679,2181L1644,1744Z" fill="#c1c1c1" stroke="#c1c1c1" stroke-width="1.51"/><path d="M1671,1488L1679,2181L1695,467Z" fill="#d5d5d5" stroke="#d5d5d5" stroke-width="1.51"/><path d="M1633,54L1503,186L1572,375Z" fill="#c7c7c7" stroke="#c7c7c7" stroke-width="1.51"/><path d="M1331,106L1139,-33L1070,98Z" fill="#d3d3d3" stroke="#d3d3d3" stroke-width="1.51"/><path d="M1274,-63L1139,-33L1331,106Z" fill="#cbcbcb" stroke="#cbcbcb" stroke-width="1.51"/><path d="M13,58L-151,89L-155,242Z" fill="#c2c2c2" stroke="#c2c2c2" stroke-width="1.51"/><path d="M-155,242L-250,-129L-184,425Z" fill="#c5c5c5" stroke="#c5c5c5" stroke-width="1.51"/><path d="M26,-158L-151,89L13,58Z" fill="#bbbbbb" stroke="#bbbbbb" stroke-width="1.51"/><path d="M1386,2374L1677,2281L1526,2112Z" fill="#bbbbbb" stroke="#bbbbbb" stroke-width="1.51"/><path d="M1293,2575L1376,2517L1146,2426Z" fill="#c9c9c9" stroke="#c9c9c9" stroke-width="1.51"/><path d="M1293,2575L1146,2426L929,2526Z" fill="#d1d1d1" stroke="#d1d1d1" stroke-width="1.51"/><path d="M1683,2568L1677,2281L1386,2374Z" fill="#bbbbbb" stroke="#bbbbbb" stroke-width="1.51"/><path d="M489,-171L647,64L719,-93Z" fill="#d2d2d2" stroke="#d2d2d2" stroke-width="1.51"/><path d="M489,-171L356,102L647,64Z" fill="#d4d4d4" stroke="#d4d4d4" stroke-width="1.51"/><path d="M-238,2491L11,2589L-21,2351Z" fill="#bbbbbb" stroke="#bbbbbb" stroke-width="1.51"/><path d="M295,2544L11,2589L718,2573Z" fill="#d2d2d2" stroke="#d2d2d2" stroke-width="1.51"/><path d="M512,-209L489,-171L719,-93Z" fill="#d3d3d3" stroke="#d3d3d3" stroke-width="1.51"/><path d="M11,2589L1293,2575L718,2573Z" fill="#d0d0d0" stroke="#d0d0d0" stroke-width="1.51"/><path d="M718,2573L1293,2575L929,2526Z" fill="#d4d4d4" stroke="#d4d4d4" stroke-width="1.51"/><path d="M343,-148L196,-122L356,102Z" fill="#d1d1d1" stroke="#d1d1d1" stroke-width="1.51"/><path d="M824,-218L719,-93L853,-21Z" fill="#d1d1d1" stroke="#d1d1d1" stroke-width="1.51"/><path d="M1474,-58L1274,-63L1331,106Z" fill="#c2c2c2" stroke="#c2c2c2" stroke-width="1.51"/><path d="M489,-171L301,-304L343,-148Z" fill="#d2d2d2" stroke="#d2d2d2" stroke-width="1.51"/><path d="M114,-236L26,-158L196,-122Z" fill="#c4c4c4" stroke="#c4c4c4" stroke-width="1.51"/><path d="M761,-218L512,-209L719,-93Z" fill="#d1d1d1" stroke="#d1d1d1" stroke-width="1.51"/><path d="M-279,1818L-238,2491L-194,2365Z" fill="#bbbbbb" stroke="#bbbbbb" stroke-width="1.51"/><path d="M-194,2365L-238,2491L-21,2351Z" fill="#bbbbbb" stroke="#bbbbbb" stroke-width="1.51"/><path d="M824,-218L853,-21L1046,-235Z" fill="#d4d4d4" stroke="#d4d4d4" stroke-width="1.51"/><path d="M1046,-235L853,-21L1139,-33Z" fill="#d4d4d4" stroke="#d4d4d4" stroke-width="1.51"/><path d="M114,-236L196,-122L301,-304Z" fill="#cccccc" stroke="#cccccc" stroke-width="1.51"/><path d="M196,-122L26,-158L13,58Z" fill="#c1c1c1" stroke="#c1c1c1" stroke-width="1.51"/><path d="M1213,-285L1046,-235L1139,-33Z" fill="#d1d1d1" stroke="#d1d1d1" stroke-width="1.51"/><path d="M1213,-285L301,-304L761,-218Z" fill="#d0d0d0" stroke="#d0d0d0" stroke-width="1.51"/><path d="M301,-304L489,-171L512,-209Z" fill="#d4d4d4" stroke="#d4d4d4" stroke-width="1.51"/><path d="M1274,-63L1213,-285L1139,-33Z" fill="#cecece" stroke="#cecece" stroke-width="1.51"/><path d="M1503,186L1474,-58L1331,106Z" fill="#c0c0c0" stroke="#c0c0c0" stroke-width="1.51"/><path d="M1613,4L1474,-58L1503,186Z" fill="#bdbdbd" stroke="#bdbdbd" stroke-width="1.51"/><path d="M1695,467L1633,54L1572,375Z" fill="#cdcdcd" stroke="#cdcdcd" stroke-width="1.51"/><path d="M301,-304L512,-209L761,-218Z" fill="#d4d4d4" stroke="#d4d4d4" stroke-width="1.51"/><path d="M301,-304L196,-122L343,-148Z" fill="#d0d0d0" stroke="#d0d0d0" stroke-width="1.51"/><path d="M1633,54L1613,4L1503,186Z" fill="#c0c0c0" stroke="#c0c0c0" stroke-width="1.51"/><path d="M1213,-285L761,-218L824,-218Z" fill="#d4d4d4" stroke="#d4d4d4" stroke-width="1.51"/><path d="M-24,-343L26,-158L114,-236Z" fill="#bebebe" stroke="#bebebe" stroke-width="1.51"/><path d="M-164,-356L-250,-129L26,-158Z" fill="#bbbbbb" stroke="#bbbbbb" stroke-width="1.51"/><path d="M26,-158L-250,-129L-151,89Z" fill="#bbbbbb" stroke="#bbbbbb" stroke-width="1.51"/><path d="M-151,89L-250,-129L-155,242Z" fill="#bfbfbf" stroke="#bfbfbf" stroke-width="1.51"/><path d="M-184,425L-250,-129L-265,1422Z" fill="#d3d3d3" stroke="#d3d3d3" stroke-width="1.51"/><path d="M1046,-235L1213,-285L824,-218Z" fill="#d3d3d3" stroke="#d3d3d3" stroke-width="1.51"/><path d="M1424,-260L1213,-285L1274,-63Z" fill="#c6c6c6" stroke="#c6c6c6" stroke-width="1.51"/><path d="M1424,-260L1274,-63L1474,-58Z" fill="#bfbfbf" stroke="#bfbfbf" stroke-width="1.51"/><path d="M1677,2281L1683,2568L1679,2181Z" fill="#bbbbbb" stroke="#bbbbbb" stroke-width="1.51"/><path d="M1679,2181L1683,2568L1695,467Z" fill="#cecece" stroke="#cecece" stroke-width="1.51"/><path d="M1376,2517L1683,2568L1386,2374Z" fill="#bbbbbb" stroke="#bbbbbb" stroke-width="1.51"/><path d="M1293,2575L1683,2568L1376,2517Z" fill="#bbbbbb" stroke="#bbbbbb" stroke-width="1.51"/><path d="M1668,-318L1424,-260L1474,-58Z" fill="#bbbbbb" stroke="#bbbbbb" stroke-width="1.51"/><path d="M301,-304L-24,-343L114,-236Z" fill="#c6c6c6" stroke="#c6c6c6" stroke-width="1.51"/><path d="M1213,-285L-24,-343L301,-304Z" fill="#d4d4d4" stroke="#d4d4d4" stroke-width="1.51"/><path d="M-24,-343L-164,-356L26,-158Z" fill="#bbbbbb" stroke="#bbbbbb" stroke-width="1.51"/><path d="M1668,-318L-164,-356L-24,-343Z" fill="#d4d4d4" stroke="#d4d4d4" stroke-width="1.51"/><path d="M1213,-285L1668,-318L-24,-343Z" fill="#d5d5d5" stroke="#d5d5d5" stroke-width="1.51"/><path d="M1424,-260L1668,-318L1213,-285Z" fill="#bbbbbb" stroke="#bbbbbb" stroke-width="1.51"/><path d="M1613,4L1668,-318L1474,-58Z" fill="#bbbbbb" stroke="#bbbbbb" stroke-width="1.51"/><path d="M1633,54L1668,-318L1613,4Z" fill="#bbbbbb" stroke="#bbbbbb" stroke-width="1.51"/><path d="M1695,467L1668,-318L1633,54Z" fill="#bfbfbf" stroke="#bfbfbf" stroke-width="1.51"/></svg>