<?xml version="1.0" standalone="no"?>
<!DOCTYPE svg PUBLIC "-//W3C//DTD SVG 20010904//EN"
 "http://www.w3.org/TR/2001/REC-SVG-20010904/DTD/svg10.dtd">
<svg version="1.0" xmlns="http://www.w3.org/2000/svg"
 width="512.000000pt" height="512.000000pt" viewBox="0 0 512.000000 512.000000"
 preserveAspectRatio="xMidYMid meet">
<metadata>
Created by potrace 1.11, written by Peter Selinger 2001-2013
</metadata>
<g transform="translate(0.000000,512.000000) scale(0.100000,-0.100000)"
fill="#000000" stroke="none">
<path d="M599 5097 c-18 -12 -44 -38 -56 -56 l-23 -34 0 -2447 0 -2447 23 -34
c12 -18 38 -44 56 -56 l34 -23 1932 0 1932 0 34 23 c18 12 44 38 56 56 l23 34
0 1723 c0 948 -3 1724 -7 1725 -5 0 -303 1 -663 1 -360 0 -675 4 -699 8 -24 4
-47 13 -51 20 -4 6 -10 10 -13 8 -3 -1 -20 11 -39 28 -38 36 -70 74 -63 74 3
0 1 9 -5 21 -6 11 -14 30 -17 42 -6 26 -15 812 -12 1162 0 33 0 90 0 128 l-1
67 -1204 0 -1203 0 -34 -23z m2211 -2886 c0 -5 -7 -12 -16 -15 -14 -5 -15 -4
-4 9 14 17 20 19 20 6z m-60 -91 c0 -5 -2 -10 -4 -10 -3 0 -8 5 -11 10 -3 6
-1 10 4 10 6 0 11 -4 11 -10z m-70 -216 c0 -8 -19 -13 -24 -6 -3 5 1 9 9 9 8
0 15 -2 15 -3z"/>
<path d="M3175 4680 c0 -238 4 -430 9 -430 5 0 4 -6 -1 -12 -11 -15 -8 -330 4
-373 10 -36 44 -95 55 -95 4 0 8 -7 8 -15 0 -8 7 -15 15 -15 9 0 18 -7 22 -16
5 -13 7 -13 14 -2 7 10 9 10 9 1 0 -7 12 -13 26 -13 14 0 23 -3 21 -7 -7 -10
45 -10 61 0 6 5 12 5 12 0 0 -10 581 -10 597 0 6 4 14 4 17 -1 6 -10 132 -9
142 0 4 4 14 4 23 0 9 -4 90 -7 181 -6 221 2 210 1 203 19 -3 9 -8 13 -11 11
-3 -3 -46 34 -96 84 -146 143 -1241 1242 -1269 1273 -13 15 -28 27 -33 27 -5
0 -9 -187 -9 -430z"/>
</g>
</svg>
